<mxfile host="65bd71144e">
    <diagram id="EIy-g8aQ2TAn4GChEMU9" name="Seite-1">
        <mxGraphModel dx="1131" dy="496" grid="1" gridSize="10" guides="1" tooltips="1" connect="1" arrows="1" fold="1" page="1" pageScale="1.5" pageWidth="827" pageHeight="1169" math="0" shadow="0">
            <root>
                <mxCell id="0"/>
                <mxCell id="1" parent="0"/>
                <mxCell id="ArP_YYCxBsAr_nBDqV21-1" value="&lt;b&gt;makefile&lt;/b&gt;" style="rounded=0;whiteSpace=wrap;html=1;" parent="1" vertex="1">
                    <mxGeometry x="570" y="830" width="120" height="60" as="geometry"/>
                </mxCell>
                <mxCell id="ArP_YYCxBsAr_nBDqV21-18" value="&lt;div style=&quot;text-align: center&quot;&gt;&lt;b&gt;collect.mak&lt;/b&gt;&lt;/div&gt;--&amp;gt; new created&lt;br&gt;--&amp;gt; to read make variables&lt;br&gt;--&amp;gt; to write CMakeLists.txt" style="rounded=0;whiteSpace=wrap;html=1;align=left;" parent="1" vertex="1">
                    <mxGeometry x="555" y="560" width="150" height="70" as="geometry"/>
                </mxCell>
                <mxCell id="ArP_YYCxBsAr_nBDqV21-19" value="Transformer" style="text;html=1;strokeColor=none;fillColor=none;align=center;verticalAlign=middle;whiteSpace=wrap;rounded=0;fontStyle=1;fontSize=16;" parent="1" vertex="1">
                    <mxGeometry x="64" y="620" width="60" height="30" as="geometry"/>
                </mxCell>
                <mxCell id="ArP_YYCxBsAr_nBDqV21-20" value="" style="endArrow=none;dashed=1;html=1;rounded=0;" parent="1" edge="1">
                    <mxGeometry width="50" height="50" relative="1" as="geometry">
                        <mxPoint x="30" y="690" as="sourcePoint"/>
                        <mxPoint x="1070" y="690" as="targetPoint"/>
                    </mxGeometry>
                </mxCell>
                <mxCell id="ArP_YYCxBsAr_nBDqV21-21" value="&lt;b style=&quot;font-size: 16px;&quot;&gt;Legacy&lt;/b&gt;" style="text;html=1;strokeColor=none;fillColor=none;align=center;verticalAlign=middle;whiteSpace=wrap;rounded=0;fontSize=16;" parent="1" vertex="1">
                    <mxGeometry x="50" y="720" width="60" height="30" as="geometry"/>
                </mxCell>
                <mxCell id="ArP_YYCxBsAr_nBDqV21-24" value="" style="endArrow=classic;html=1;rounded=0;entryX=0.5;entryY=1;entryDx=0;entryDy=0;" parent="1" source="ArP_YYCxBsAr_nBDqV21-1" target="ArP_YYCxBsAr_nBDqV21-18" edge="1">
                    <mxGeometry width="50" height="50" relative="1" as="geometry">
                        <mxPoint x="590" y="820" as="sourcePoint"/>
                        <mxPoint x="640" y="770" as="targetPoint"/>
                        <Array as="points">
                            <mxPoint x="630" y="710"/>
                            <mxPoint x="630" y="650"/>
                        </Array>
                    </mxGeometry>
                </mxCell>
                <mxCell id="ArP_YYCxBsAr_nBDqV21-41" style="edgeStyle=orthogonalEdgeStyle;rounded=0;orthogonalLoop=1;jettySize=auto;html=1;exitX=1;exitY=0.5;exitDx=0;exitDy=0;entryX=0;entryY=0.5;entryDx=0;entryDy=0;entryPerimeter=0;fontSize=16;" parent="1" source="ArP_YYCxBsAr_nBDqV21-27" target="ArP_YYCxBsAr_nBDqV21-26" edge="1">
                    <mxGeometry relative="1" as="geometry"/>
                </mxCell>
                <mxCell id="ArP_YYCxBsAr_nBDqV21-27" value="&lt;b&gt;transformer.py&lt;/b&gt;" style="rounded=0;whiteSpace=wrap;html=1;align=center;" parent="1" vertex="1">
                    <mxGeometry x="570" y="395" width="120" height="60" as="geometry"/>
                </mxCell>
                <mxCell id="ArP_YYCxBsAr_nBDqV21-43" style="edgeStyle=orthogonalEdgeStyle;rounded=0;orthogonalLoop=1;jettySize=auto;html=1;exitX=1;exitY=0.5;exitDx=0;exitDy=0;exitPerimeter=0;entryX=0;entryY=0.5;entryDx=0;entryDy=0;fontSize=16;" parent="1" source="ArP_YYCxBsAr_nBDqV21-32" target="ArP_YYCxBsAr_nBDqV21-27" edge="1">
                    <mxGeometry relative="1" as="geometry"/>
                </mxCell>
                <mxCell id="ArP_YYCxBsAr_nBDqV21-32" value="Transformer.git" style="shape=cylinder3;whiteSpace=wrap;html=1;boundedLbl=1;backgroundOutline=1;size=15;align=center;" parent="1" vertex="1">
                    <mxGeometry x="330" y="370" width="90" height="110" as="geometry"/>
                </mxCell>
                <mxCell id="ArP_YYCxBsAr_nBDqV21-34" value="CMake project" style="swimlane;align=center;fillColor=#e1d5e7;strokeColor=#9673a6;" parent="1" vertex="1">
                    <mxGeometry x="800" y="150" width="240" height="520" as="geometry"/>
                </mxCell>
                <mxCell id="ArP_YYCxBsAr_nBDqV21-26" value="spl.bat&lt;br&gt;spl.ps1&lt;br&gt;CMakeLists.txt" style="shape=cylinder3;whiteSpace=wrap;html=1;boundedLbl=1;backgroundOutline=1;size=15;align=center;fillColor=#9F74BF;" parent="ArP_YYCxBsAr_nBDqV21-34" vertex="1">
                    <mxGeometry x="50" y="220" width="140" height="110" as="geometry"/>
                </mxCell>
                <mxCell id="ArP_YYCxBsAr_nBDqV21-23" value="&lt;span style=&quot;text-align: center&quot;&gt;&amp;lt;variant&amp;gt;/config.cmake&lt;br&gt;&lt;/span&gt;&amp;lt;variant&amp;gt;/parts.cmake&lt;br style=&quot;text-align: center&quot;&gt;&lt;span style=&quot;text-align: center&quot;&gt;tools/**/toolchain.cmake&lt;/span&gt;" style="shape=cylinder3;whiteSpace=wrap;html=1;boundedLbl=1;backgroundOutline=1;size=15;align=left;fillColor=#FF5454;" parent="ArP_YYCxBsAr_nBDqV21-34" vertex="1">
                    <mxGeometry x="50" y="390" width="140" height="110" as="geometry"/>
                </mxCell>
                <mxCell id="ArP_YYCxBsAr_nBDqV21-36" value="&lt;div&gt;&lt;span&gt;&amp;lt;variant&amp;gt;/lib/&lt;/span&gt;&lt;br&gt;&lt;/div&gt;&lt;div&gt;&lt;span&gt;&amp;lt;variant&amp;gt;/Cfg/&amp;lt;linkerDef&amp;gt;&lt;/span&gt;&lt;/div&gt;legacy/&amp;lt;variant&amp;gt;/Src" style="shape=cylinder3;whiteSpace=wrap;html=1;boundedLbl=1;backgroundOutline=1;size=15;align=center;fillColor=#9F74BF;strokeColor=#9673a6;" parent="ArP_YYCxBsAr_nBDqV21-34" vertex="1">
                    <mxGeometry x="50" y="65" width="140" height="110" as="geometry"/>
                </mxCell>
                <mxCell id="ArP_YYCxBsAr_nBDqV21-42" style="edgeStyle=orthogonalEdgeStyle;rounded=0;orthogonalLoop=1;jettySize=auto;html=1;exitX=1;exitY=0.5;exitDx=0;exitDy=0;fontSize=16;" parent="1" source="ArP_YYCxBsAr_nBDqV21-38" target="ArP_YYCxBsAr_nBDqV21-36" edge="1">
                    <mxGeometry relative="1" as="geometry"/>
                </mxCell>
                <mxCell id="ArP_YYCxBsAr_nBDqV21-38" value="&lt;b&gt;transformer.py&lt;/b&gt;" style="rounded=0;whiteSpace=wrap;html=1;align=center;" parent="1" vertex="1">
                    <mxGeometry x="570" y="240" width="120" height="60" as="geometry"/>
                </mxCell>
                <mxCell id="ArP_YYCxBsAr_nBDqV21-49" style="edgeStyle=orthogonalEdgeStyle;rounded=0;orthogonalLoop=1;jettySize=auto;html=1;exitX=0.5;exitY=0;exitDx=0;exitDy=0;exitPerimeter=0;entryX=0;entryY=0.5;entryDx=0;entryDy=0;fontSize=16;" parent="1" source="ArP_YYCxBsAr_nBDqV21-39" target="ArP_YYCxBsAr_nBDqV21-38" edge="1">
                    <mxGeometry relative="1" as="geometry"/>
                </mxCell>
                <mxCell id="ArP_YYCxBsAr_nBDqV21-39" value="legacy repo" style="shape=cylinder3;whiteSpace=wrap;html=1;boundedLbl=1;backgroundOutline=1;size=15;align=center;" parent="1" vertex="1">
                    <mxGeometry x="124" y="845" width="90" height="110" as="geometry"/>
                </mxCell>
                <mxCell id="ArP_YYCxBsAr_nBDqV21-40" value="" style="endArrow=classic;html=1;rounded=0;fontSize=16;" parent="1" source="ArP_YYCxBsAr_nBDqV21-18" target="ArP_YYCxBsAr_nBDqV21-23" edge="1">
                    <mxGeometry width="50" height="50" relative="1" as="geometry">
                        <mxPoint x="610" y="600" as="sourcePoint"/>
                        <mxPoint x="660" y="550" as="targetPoint"/>
                    </mxGeometry>
                </mxCell>
                <mxCell id="ArP_YYCxBsAr_nBDqV21-45" value="" style="shape=flexArrow;endArrow=classic;html=1;rounded=0;fontSize=16;" parent="1" edge="1">
                    <mxGeometry width="50" height="50" relative="1" as="geometry">
                        <mxPoint x="228" y="899.29" as="sourcePoint"/>
                        <mxPoint x="420" y="899" as="targetPoint"/>
                    </mxGeometry>
                </mxCell>
                <mxCell id="ArP_YYCxBsAr_nBDqV21-46" value="" style="shape=flexArrow;endArrow=classic;html=1;rounded=0;fontSize=16;" parent="1" edge="1">
                    <mxGeometry width="50" height="50" relative="1" as="geometry">
                        <mxPoint x="227.99999999999977" y="826.2899999999997" as="sourcePoint"/>
                        <mxPoint x="420" y="826" as="targetPoint"/>
                    </mxGeometry>
                </mxCell>
                <mxCell id="6m8zwuc6FkXynHBBF5jF-4" value="" style="shape=image;verticalLabelPosition=bottom;labelBackgroundColor=default;verticalAlign=top;aspect=fixed;imageAspect=0;image=data:image/png,iVBORw0KGgoAAAANSUhEUgAAANoAAAF0CAYAAABFfCfxAAAAAXNSR0IArs4c6QAAAARnQU1BAACxjwv8YQUAAAAJcEhZcwAADsMAAA7DAcdvqGQAADC1SURBVHhe7d0JXFTl/sfx78AMMMDAsO+biiKCoKUZ7mFuuaSZWdotbbftX9a9drumVre6WZZ6S9PSrEyzvK3upmaKCwqCrLIP+74NAwMzc/7PcxgUb5nW1dMAv3ev85KZOYLmfHie88zhjExgQAi5rqzMvxJCriMKjRAJUGiESIBCI0QCFBohEqDQCJEAhUaIBCg0QiRAoREiAQqNEAlQaIRIgEIjRAIUGiESoNAIkQCFRogEKDRCJEChESIBCo0QCVBohEiAQiNEAhQaIRKg0AiRAIVGiAQoNEIkQKERIgEKjRAJUGiESIBCI0QCFBohEqDQCJEAhUaIBCg0QiRAoREiAQqNEAlQaIRIgEIjRAIUGiESoNAIkQCFRogEKDRCJEChESIBCo0QCVBohEiAQiNEAhQaIRKg0AiRAIVGiAQoNEIkQKERIgEKjRAJUGiESIBCI0QCFBohEqDQCJEAhUaIBCg0QiRAoREiAZnAmD8mfzL+T9Ha2gqTyWS+h/xecrkcCoXCfMtyUGgWpLKyEps3b0Zpaan5HvJ7xcbGYvLkyeZbloNCsyDnz5/HrFmzcO7cOfM95Pd64YUX8Nprr5lvWQ4KzYJ0Dk0uk0HFpkHWVnQYfSUtRiO0BoP4MYVGrqhzaMEODrgvKAjednbmR8nlxFVX49OCAvFjCo1cUefQbnJ1xcdDhiBMpTI/Si7no/x8PHj6tPgxhUYu4P/LNRrNL1YX8/LysHDhQmRmZiJarcaKgQPRm41s5FK21tbwtLUVp9cchUZ+lYEdTzz00ENobm4239OusbERx44dQ319PdxsbDCUjWpO7DiNXKovG+Wf7tMHbiw2jkIjv0qv18PT0xMNDQ3me8jvMdzNDV8MGwY/pVK8TaGRX9U5NIWVFUIdHWFtngaRX8dXFvN1OrSx6TaFRq5K59Bc2RTx/cGDYc+OO8jlFbLIlqWmorK1lUIjV6dzaL7syZI+YQIdi11BGvt/Nennn6Fhx7UUGrlEdXU1ysvLf7G6yM9nHD16NLRarbh69m1MDBwptF/gq4q92LTahk2vKTRyWbt27cLWrVt/sbrIw/vhhx/Q1tYGOzZlHM9GN36sRi7lrFDgjchIeLBvRl09NP6aDrlOVq1aJTg5OfFvZLT9gc3Lzk7QTJ4sCLNmCanjxwuBSqV4PwtNKLrtNvF+vn14440Xfg8Lzfx/37LQiHYdrV69GkuWLBGPxXzs7OBv/g5MfltyfT30bNRnoSH+llsQYG9PU0dyeZ1Du8vfH/cFB9My/hUY2dNxfnw8yvV6Co1cnc6hLQ4LwysDBlw4bYj8OgN7OvbZvRsFOl23Co2OwAmRAIVGiAQoNEIkQKERIgEKjRAJUGiESIBCI0QCFBohEqDQCJEAhUaIBCg0QiRAoREiAQqNEAlQaIRIgEIjRAIUGiESoNAIkQCFRogEKDRCJEChESIBCo0QCVBohEiAQiNEAhQaIRKg0AiRAIVGiAQoNEIkQKERIgEKjXQ5/F1ZWk0mNBkMqG9rg479aukoNNLllLa0YGN+PlZlZeEdtu0vLzc/YrkoNNLl5DU14dX0dLyYmorlaWn4vrTU/IjlotBIl2NlZQVbW1uoVCq4uLjA3d0dnp6e8PLygqOjo3kvy0KhkS4nICAAixYtwrJly7B8+fJLtnHjxpn3siwUGuly/P39sXDhQjz77LN48sknxY8fffRRPPLIIxg6dKh5L8tCoRGLx1cZ+Xtbd+X3gKbQiMXSGgz4Z0YGnjp7Vlz8qG1rMz/S9VBoxGLx18c25efj/ZwcbC8qEsPrqig0YrE6XpjmvyoUCiiVSnFV0d7eXny8K6HQiMVycnLCihUr8Pnnn+OLL77A1q1bsWXLFixduhSurq7mvboGCo1YLD6CzZgxA7NnzxZ/nT59OqZNm4bhw4eLj3UlFBr50zQbjahpbUVJczNytFqkNzQgrb4ebWy62MHGxkZ8gbqrkwmM+WNyja1evRpLlixBA3sCLQ4LwysDBkAuk5kf7d54RGUtLdDodChkW5lej0q2VbGtrq0NDWzj+/Ble3Fjv8fEl/DZlt7YKB6b8TM94uPjxReouzoK7TrqKaHxM+gz2YiUwkajTPZ3zWNh8VGqwWBAC4uJb3oWDo+Hbwb2lDOwXy+OW7+OQiNXpTuGxp8sdWy6l1BXh1M1NTjL4splkfHXuPiPrfBRiofFp39XCokfZ/EVRL7xj/n5i3yaKJfLYW1tLZ7HuGHDBgqN/LbuEhoffQrYKHWoshJH2JbM4qpisfHXuXQsqo4l+M74cry3tzdCQkLQq1cv8bQpPkLx+/iKIY+IB8aD4nHJ2P+XjmMx/jHHH+MnC/PP1dVRaNdRVw6NT+/4SLWnvBz7ysqQzP4OfMQSw2Jb59GKj0Y8psGDByMqKgph7O8aFBQEZ2dncTGDh8JHqY6RqmPrCKonoNCuo64WGl+M4D9U+V1JCb5hWyKbHorHWGzE6rwSyMPq168fRo8eLS61R0REiD+q0hFVR1g9KaQrodCuo64SWj2bBu5moxY/zennqqoL00E+qnXgU71Ro0ZhwoQJGDFihDhidR6pKKrfRqFdR5YcGh+pDrPjra0aDXaz6SFfbudh8aV2jofDp36xsbGYOXOmOHrxUasnTvuuBXrBugfhI9XO0lLMP30agTt3YsqxY/iUhcZf3+LL7zwyvvI3fvx4bNq0CVlZWeKpT3fffTf8/PzEx2j0+mNoRLuOOo9oruz4JcbNDTe5umKwWo2BbLTwZsc6/Cnb8bTteAL/0adxxz8k/yflH/NjrozGRhysqBAvYHOUTQv5a1sd+/Gvxzc+QvGFDB4UH726w3K6paHQrqP33ntPDK2urk588nfGY/K2s0O4SoW+5q2XgwMCWHw+bHMyL2l3DlHEY+z0ufhHfCTiZ1vwF4mztVqcZV+Pb0nmZXgeXAe+hM7D4iNT3759cfvtt4vnEoaHh5v3INcDhXYdxcXFYe3ateKvNTU1aOPHQWxEMbIpHN8u97/eisVkz2JwZrHx4JxYFPy2gr+Yyx7rOMOCT/f4C8VlLLDGTiNVZx0vAHesBvbv3x+TJk0ST84dOHAgTQMlQqFJwMSCyM3NRWJiIhISEpCWlob09HTUsxGHh9exdQT4WxFeTscUkG8dUfGNv0A8ZMgQjBkzRlw15C8cd7wwTKRDof1JeHwFBQXIzs4WI+RbYWEhSkpKUM6Op5rZKMX36bzxf6oLx3HsV751TAX5z27xqHhI/DUu/tpWZGSkuIjBRzTy56LQLBAf0XQ6HRobG8VNy467+K96vf6SaSB/gZhf25CfpsRDo5HKclFohEiAvgUSIgEKjRAJUGiESIBCI0QCFBohEqDQCJEAhUaIBCg0QiRAoREiAQqNEAlQaIRIgEIjRAIUGiESoNAIkQCFRogEKDRCJEChESIBCq0b0JYX4MiBIzhfUCa+oR+xPBRaN1CWkYhNaz5GXFIWWs33EctCoXVFghElufzqWQVoYUNYq7YBJYUlqGvUXfHN/8ifw3oZY/6YWDrBhMrC89i+6T28vmI9tAp3RN8QAW1OEvYeOofQmJtxw8A+sDHv3ll9RS7279qDoycTUG+wQ4CPq3ih1g5tzY04fnAn9h86ijMJCeL1JzOy8mDt7AdPZzvodfVITzyB/QcO41xmPoxyJTxcnTt9DgGNlcU4cfQwfoo7hfpW/o6dapRmJeDw6Qw4ubhCZW934arLWQlHsCchH6FBvlDIrc33dl8UWpcgoLZMg28/W4uXX3sLxzIqMXLKHZgxdTz83FSozvqt0ASc2rUeTzzzKjLLG9FUU4Qt69/F4XwFJowZBBsrGdq0ZXjxwXnYuD8ZMDZh/zdbsfvgcZgc3RDSfxCUTflY+dITePeTvSivrkTCsQP46psfYbDzRlRECKxlJmSc2IlXl72ErXtOolSTg+++2o68Blso67Kw7v1NUIYMRN8QP/HrAc1Y89eHcUijxJSxQ2Bn2/Xf0fOK+OXmiKUyCQ1VxcLXG98Wpt4SIwwdOV5YunKDcColS6ip1wptRpO4V+oPm4XxgyYI73y2R9CK91zUVBgnTB0+WHjilU1CalaBUFZaIiTuXSsEe/oL6w7lsy9hEs5uf1Xw8b9B2HU2Rygt1gg/fbdeGNy7l/DqZ3GCtqVNqCwrEnZ/t104k5opFBYVCekn9wnPL5guzHjwOSG9qlXQlaYKLz81R5hwxwJhx4F4QaPRCGcOfSts/+agkJ5wSLhzzE3C3EX/FvLKGsQ/kzb3R2FwqJ/w980/sc9vEO/r7ugYzYLp2HRv+9plWLLmS/QfPx8ffLgBzz50Dwb37w0XJwfIxdHhtyXsO4C0Ji9MmTAE/t5uUDk5o8/QKRjsWYuffzwtXq8/4UQiWnpHIzYyBN6+/giNjEGoXxvqq+vgYCuHq7s3xo6fiuiwPvD29IB/YCD8/LzY6FaN0tom5KSnIzGtHtHDxiJ25CDx3WiiR0zElPEx6BMxDKNu7oPU5KMoraoSv97xvftQZROBqTGhsLPp/tNGjkKzYAoHZ/gFh8KmpRr7d+9EUkYuBLkNrK8isA5ZJYXQFZ/AvNtuQVjfUPTp0wd9w4dgd6YObUaDeMwUHOgJI5vuFWiN7DDQAF1tPjTlNnD38RM/h1HfiIT9X2D25DHoFRKMvtGjsPTdLTCaTDAY2XFjXQ0qrExw9XKFkzkcK/bnVCptIVfYYfwtY2FTno7488VobGnE/n0HMfDmUQh2VbFpp7h7t0ehWTCFvRtiZz+J/3y9HfPHBmLNi49i0tQ52PztYdTo2sx7/Ta5zAqyoBHYsfcgzqWkIEXcUlFUVoWPlswALy10yBCg8ARmTJ6GRc8/jwcfeh62/Sfi7onhgKkV6WcOY+nSt+A8cAb2/nwaKfEHsfSpueavwJ5EVtbsiSSDSTCJI9Z/6zPsVkQH2OPojyegOb0HP7LRL3baBKgc7c17dH8UmiWTyaCwsUNg3yg89sK/8NUXn2FatDPe+L+/YPyUefjyxzPQX2E9P7xXEOzL81Css4KDswtcXV0vbI5KG/GNMz5avx7R9/wNbz81Ey5qD9y/eBV2fPoW/FVyoE2HqsLzKLBi0d95F8KCfaF2doIdm1J28HFxhU+rFiX5haho7vgDCWhpaYHBYISVYwDGjRmK1DPHseWTrWjwiMaYSF8obXrO049WHbsA8V1jrOVQu/sgJnYypowbDm1eOnQye/SPjoIul686noTJWQUF9CjMy0Me29rkDujdPxSnD23H5/85CBsWkZOtDDnJx7F543o2Z4xBkIsNGkpS8cV3R+Dk5gFruQIKWau4PB/o5w0FmwlWlhZg31c7IXMKwIBgB+zcthFvr/kItr5huOXWCRjczxNFeUn4iu2jNdjCQdaErz9cgc27cxAQ0gc+7o7wUxvw5bbP8c3B4xg+8wncdetQqJQ9YLWxQ/uaCOlyTGyixjf2Ye6R7cL0ERGCXC6/ZJu7fLOgqdIJDcXJwtIn5wlBXq6CjUIhqH17CdPveVhIKtOxz2EUvl75iKC0dRYmzr5XmDf3bmFMzA2Ct5tauHnq/UJ2nUHQVpcK29csEQaGeAmOLp5C7OwHhGeeXig89vBDwuGcOvGPU6tJE1a/tFAIC/ISlI6uQsytdwpfHDglNHSsKpq0wt/njBRclB7Cph+TBV1b+4ppT0Gh9XAmY6EwVm0rzHvlS8FojtfQ0iCc/H6N0LdflLDpZKl5z/+RqVl4/bHJwqDJC4TU/FLxG0RPQsdoPZ4SHn5OKEw+ieOJ6SjUFCDp1FF8vu07qHz6Y2iom3m//0191hHsPp6LmLGT4e7icun7cvcAFFoPJ7NyxcotnyHSIRcPzJqMmOEjMe/xpWjxH4v3161CuMu1OY46E5cIQR2JGeOi4aKyNd/bc9AbERIiARrRCJEAhUaIBCg0QiRAoREiAQqNEAnQqqOlYf8czU31yMs6j+LyKrSarKBSuyM4JAT+Pm70nbGLotAsTIu2Fkf3fIlNn/+AGp2ev9AFGzsPxE65A/PnT4eqS5fGz0Rif6VOl1DoKSg0i2JCQfopvLTwMZT73YqXnlsAH0cTUuLPokXugnG3T8I1ev34T6LD6Z/OwNbTD336BEKpuPgTAN0dhWZR2pB6ajeevPs5DHnyLbz+9DT82s94GvRaaHKzkJqejep6LWzsnREc2g/hfXtB7agU9zl3ci8q29xxQ/QAODvaifeVp8XjQFI1Js+MhYutAtriJGw/UITbJoXj5E9xaDAoEDNhOkJc5GisKUPC6QRoSqthbWuP4L7hiBgQBmc7OVrY1DY3MxXpWfloaDbAlYUTOXAggvw8xB/kNLTUIzMtFWmZedC2tMHZPRgxw2+Ap2sr3nzsBaS3yDFs7FjcfNNQhPcOgI28+0+I6cdkLExTXRWOH9yNrDojAgMD4OLicsmP+5vampAUtx8bN27GoeOJ4o/DpJw9hePxybBy9ECQv4+4/6dvPYH/nKzDsKGD4aZ2EH9v4rZVuH/xl5jxyCx4Km1RdvJDxM5ZDaWyDHv2HMX57BwE3zQB3la1+HLjGmzathPZBYXIPZ+KrLxiOHj1QaAaOHVwFzZv2Y7k83nQ5OeyIE8jv0oHH/9AeKrtcO7oLmz8eBtOp2ahtLQI+ZpGhEaGwcuNXwlLhtLCbBw9FoezSWmoadSxbxROcHNRXXJVru6GQrMo7HhMYce+w7Mp1rHDOHz8LCpq6mGytoUre5LaKaxRmZ+C9es+QEqVAvc9+gTunzsLN4YHiE/uoxlVGDAwEv6eahzf/SkK9d4YNybmQmgFJ/bhi/0azHv6HnjZ26E++zDe/XQn4NYbjz/1LGaMH4EAH3cUn/kBL73+IYbOfhyLnngIY4dFwl4ug53KC4qmfGz+aCOq7cPw3F8XYfa08VCbyrFr1yGYVH6IjvTDd+v/jRN5Mjz0zF/x8F9mIbJvCPx8PaC0VcI3JAwjRo1AHz831Jfl48TJU0hMTEJZXRPc/YKhtu+eP6NGi1gWxsHFE5PmLMQLi57AoCAHHPx6M/756mvY+t1BVOsMyMk4h3RNOWLGT8GU2BgEBgRg8IiJLJLRqM3KRI6mmE1Ar56MHTfNfPhFTBs7DBHRN8JDYUDSkUOoYyHdN38OwnoFom/kTZg5Zx7GDglAfnY6zqZo4ObuhmrNeSQmp8EgU8CqqRx5uTmo18vg7OwEY1MlziYmQlPVhMDQXnB1crzwZFMo1Rh2y1S8sPxVPPPgTDTlHMFLf/87dp8tM+/R/VBoFkcGB7UnYm+fhyXLX8HzTy2At6wCn23chJMpuaivr4YRJnh5usGuY0Yps2ajmA/sWwQ0NulhMN99VdhsLbxvqPkGO74yGFFQVAUbtT981RdHFysrKyisjGxqW4vyinp2jJiBAwcOiNvJlHyofALQK9AbcigxYsoMjBkaiOQjX2PFG69j3SffoqC87pKrKLc11+JM3M/4+dhpCOpAjBw1GiEe3fcaIhSahZJZWcPVOwgTZ8zG7NvHQajMZcdQeeKFcFoNAlr0rZdcCEerb0YrK8/WVo6O/ozGNgjCxaf3Va168euUsKiEFh30/12szArWcjlUKjX6Rw7FpEmTxO226bPw6BPPYvqtw+FsK0PQgBg8+PgzePi+u9DLsRnbN76Pb44kob7ZgNamGpw4+D1WvPoy3ly9AQm57Dhy/GwsWboME6K8zV+o+6HQLIjAwqivKkJmfhmMpvYs2pqbUVdTB8HWASonN3h7+0ItF5Cakoni2mZxn9aGUsQnJcHa05ONbB7g45CDyhWlJQWobmyCkX2qxrJM7OPXb2z97YmljY0CAyJ7o6kiHceS8sX7jG3NKC9ioWsa4OrpC09XOYws+IFDb8bIkSPZNkJcdAnwdoPC2ISSihpYO/ti7OQ78Pgj8+CKKiSf10DLRrEv/70SK95Zh8QCLUZMnInnXvg7Hl9wN6L7+nXrHwal5X0LYtI3IOnod3h57W6E9AqCh6sKdaV5SDyXDZ+BE7D4+cfgr6jGlrXvYvuP59Bv6ChE9vZERe45HE3IxYjp9+OhudPg5+aAMzvX4cml6xE4aBRGDAxCVkoqKorT8O0BAceK9yDKzRmavS+j1+Tl2JtjxK3B7X8GHrsm5TAWPfM8KlSRmBY7DNa6Sjb1a8TwaQ9gbB8ZNq1diW+P5+GmEWPRL8gLzfVV0GhlmDBhEsZHumHDh58jtagBoSG+qC1MYl8zBfOeewX3TYvA9rfWw+AZgBtiYhAVFiIu8PQEtOpoSdi0zWQ0or66EuXlZaiuroNR7oAbR0/CnFlTER7iCaWDE3wDguDqIEdddQU7XqqCQe6MUeOnYeZtt7ARjb/xBODq4QNvFyXKSstQr22BT99oTBoThVaFJ6ZMHQW1rQLG5mqcLzFh2qw74Wk+POJTVnt2jNg70Aet9TUoKq1EqyBHr4jBiBkaDX8fNmoGBUOlkKGyrASV1TVo1LXCxTsQ0ZHh8HFXQ6+tR3FRAUrLytBksmcj2wxxWumpdoJfrzDEDB+KIF828lr3nAkVjWgWRjAZ0dRYxwKqRHOLAbYOKnh6ecHZof1F53bsGK2pERUVFWho0sNe5QIvL3c42F369hZtzQ0oKi6Frk3G4gyAg0yHnGItevUOgC17krfpqpGRW47eYeGw/6+TNIyGNtRWlKK8pgE2ShW8fH3gpDR/fvaU0bGYKsrLxRekFXb2cHP3gIuTo3gVZWObHpUVZaipa4Rc6QQfby84Km3595Eei0IjRAK0GEKIBCg0QiRAoREiAQqNEAlQaIRIgEIjRAIUGiESoNAIkQCFRogEKDRCJEChESIBCo0QCVBohEiAQiNEAhQaIRKg0AiRAIVGiAQoNEIkQKERIgEKjRAJUGiESIBCI0QCFBohEqDQCJEAhUaIBCg0QiRAoREiAQqNEAlQaIRIgEIjRAIUGiESoNAIkQCFRogEKDRCJEChESIBCo0QCVBohEiAQiNEAhQaIRKg0AiRAIVGiAQoNEIkQKERIgEKjRAJUGiESIBCI0QCFBohEqDQCJEAhUaIBCg0QiRAoREiAZnAmD8mfwK9Xo/GxkbzLfJ7yeVy2Nvbw8bGxnyPZaLQ/kRGoxFnzpzBxo0bzfeQ38vPzw/Tpk1DVFSU+R4LxUMjfw42mglbtmzh3+ho+4PbwIEDhW+++cb8f9Ry0Yj2J2ptbcVXX32FuXPnQiaTwVahhIOdyvwouRyjyYhmvRb6thaw0PDyyy9j+vTp5kctE4X2J+ocmsLaBn38IjAiYoL5UXI5DbpanD5/BDklaRQaubLOofHRbPiA8bh33P+ZHyWXU1FXgv8c+wgn0w9SaORS1dXVKC0t5cfE5nsAg8GAffv2YfHixbCR2yK6dwym3nyv+VHSwYpNqx3snODs4CreptDIZe3atQsbNmwQVxo7mEwmlJSUIDExEVZW1nB19IC/R4j5UdLBRm6Hgb2GshF/onibQiOXtXbtWjz11FPiKEZ+H6WtA2Kjb8cdIx8Ub1No5LI6h6Z2dIObk5f5EfJr+NOSL3pU1ZdRaOTqdQ5tSL8xGBs11fwI+TUGowHJeSdxIOE/FBq5ep1DmzjkLtw1+lHzI+TXGIxt+Cl5Jz77cRWFRn4pPT39V89d3LFjB1auXCmGdnP/cRg3+A7zI6QzR6UTPNW+FBr5bc888wzS0tLMty4qLCxERkaGeOzh7uQNL1d/8yOkswFBN2ISG/EpNPKbhg8fjri4OPMt8nuNiJiIByb+jUIjv61zaL28w6CQ24ofk8tr1NWitLZQHO0pNHJVOoe2cOpSuKg8xI/J5aXmn8b3Jz4VTxam0MhV6RzaGw98Ci8XOha7kpMZP+LD3W+wuAzdNjS6lAEhEqDQCJEAhUaIBCg0QiRAoREiAQqNEAlQaIRIgEIjRAIUGiESoNAIkQCFRogEKDRCJEChESIBCo0QCVBohEiAQiNEAhQaIRKg0AiRAIVGiAQoNEIkQKERIgEKjRAJUGiESIBCI0QCFBohEqDQCJEAhUaIBCg0QiRAoRHLJwBGwQh9Wwt0ei3bGmEwtJkf7BooNGLx2oytOF90Dt/EfSxu+8/sQFFVnvnRroFCIxaPv4VTTkkq9sR/IUYWl7Yf5bVF5ke7BgqNdAnW1tZwdHSEi4sLPD094ePjAz8/P/FjpVJp3styUWjE4vGQxo8fj9WrV2PVqlV499138c4772DlypV4/vnnERERYd7TclFoxOIpFApER0dj/vz5uPfee3H33XfjrrvuwuzZs8UAfX19zXtaLgqNWCSTYILJZDTf6vooNGJRsotTsH7Xa/hg5z/xc8pu871dH4VGLAp/I/iTGQeRkPUzCitzzPd2fRQasSgdU0YrKyvY2dmJK41OTk6wsbEx79E1UWjEoowdOxa7du3CwYMHceDAAezduxc7duwQF0K6MgqNWJTAwEBxJXH06NEYPnw4YmJiMHToUAQFBZn36JooNCIZPiVsbtWhvqkGlXWlKKnOF4/DqurLIQiCuA+fMvIXp7sbGfsLtv8NyTXBvwvHxcWJH7/xwKfwcvEXP+7u+NOoqaUR1Q1lqGAR1TRWsKCq2VYLbXO9+BiPzGgysH1N4v7ixv7jJwtrmxv4ZxGniBs3bmz/pN0IhXaN9YTQjGxkqtNWoaAiC5qKbJTWaMQRqrG5Tjyr3sBi4qMX388ksM3EwzKJCx1XQqGRq9IdQ+OjUFVDOTILk8TXufh0r0ZbKZ7sazQaxKD4xmP6LXxayFcRHRwcYG9vL/7Kz/rgU0W+8cdjY2OxfPly8+/oPii0a6y7hNbapkdWSQpS80+LgZXWatpHKBZde1S/fNrwZfjg4GCEhoaiT58+CAgIEE/+9fLygru7O9RqtbhML5PJLmwdOj6Wy+Vd4iTh34tCu8a6cmhtBj0yCs/iTNbPSMk7jYbmWnEKyKd8nZ8mPAoezqBBg3DTTTeJv4aFhYlR2draiiMT3zoH1bH1VBTaNdYVQ8tgI9bJjB/FwJqaG8QFiv8Oy83NDSNHjsS4cePEvyMftXhUnQPqySFdCYV2jVl6aPyfm/9XWJmL+IxDYmD8+KtDRzj82KlXr16YNm0aJk2ahCFDhojHVeSPodCuMUsLjf/zdqz8VdaX4Wz2UZzKPARNZc6FUYuHxY+N+PETP7a6/fbbxcD4j6bwKSD531Fo11jn0Jb9ZT28XQJgbWUNKxk/brn+L8Ty0apjaZ2vCPKTdFPy45GYE4eC8kwY2H1cx6jFp3/e3t5iXHfeeac4cpFrj0K7xjqH5uMaiECvUAR79YWfW7AYnZ2NUgxOjE8MsH1Zm4f4+/CRqj0qvvHXrnhcupZGFFRkI7PwrLhaWF5XLC7DczwuPmrxVT1XV1fxVKc77rhDPN2JR0euHwrtGuOLBUePHkVra+slCwocj8vD2ZdNJ/3gofZlH/vAVeUBtYM7nOzVsLaWsxh4dPw4iYfXscjQPgXkOl74bTO0orG5HrXaKvFCNcXsmKuoKp+NYMVoNejFfTkeFz8Lnr9mxa+3cfPNN2P69Onin5MvxxNpUGjX2Lp168SzzjMyMtDY2Ijm5ma0tLRAr9eL8V0OH92UNvawUyhhy39lI5/C2kZsTQYrNlqxEYuNTDwibUuDeMpSx0jVWceo1fGCMF8t5NPBCRMmYMyYMeJtvg+RFoV2nTQ1NYmxnTt3Dunp6cjMzER+fj50Op0YHd94gG1tLB4WoMHQfux0tXgs/GwKHhU/zuLTQb6pVCr07t1bPOOdj158QYOfjUFx/bkoNAnx0S0nJwcFBQXQaDTiVlpaioqKCtTU1IjRGY18EYMdc7Hw2s8RFMRIOl4A5r92nD3Bp4L8rAt+Bkbfvn3FF435qqGzszOFZWEoNAvBI9NqteJIyDf+MQ+TR8cXKnhcHauEPCQ+BeTHXqRroNAIkQC9GkmIBCg0QiRAoREiAQqNEAlQaIRIgEIjRAIUGiESoNAIkQCFRogEKDRCJEChESIBCo0QCdBJxd1UcXYKUs7nQdvc/sOmNvbOGBA1CEHerrC2uvofoWmsq8SpuJ/Q6hSKW0dEobUyH/u+/x4aow/uvW8WXC7ztmWHv92AM4VGTJk6A/2CvMz39lw0onVTx/dvxco1a/DNdz9g//692LhmBR576CF8sicerW1X/97Q9VWl+PbzDfhq5zHwZPXaGiQfP4QjcQlo+o2fVc1OjsOBw4dRXl1nvqdno9C6CZOhGakZ51FRXSveriwrQIlegdtm3IlHHnkUzz73NLxacvH2Wx+horkFVzuNcfUOxP1PvIBH5twKW34H+42Cqf0Cq7/1OfijRqH9nWMIhdblCfwy3qd/wquL/w9Pv/wOUnJLzI8ACkc1+oUPwKBBgzHylomYPnIIis9moMZgHtGayrDl0y3Ir7t4LRN9cxOO7d+BUykF4m0Zq8nEWmlhwVz+YnkCalnYh/d+j6++2YXzBWUwshjJRRRaFyWY2pBz7gTeXPIsFj77IuIL9Jg5bQr69w4w7/FfjM3ILCiES99AuFib/9lrz2PJS0uQUNLcfpvRaeuw/cNXsW3fMfF2LZs6bvv8Q3y886h4+5dMOB+/Dy8vfgovv70Wn3/yIRYvXowv952G9uLFuHo8Cq2LEdh0TJOZgHeXP4eHn3wex3KbcddDz+K1fy7DvKmx8HK5eAk5rSYdH6x5F8uWLcWDc+fgk1PVeP7vC+Fhr2y/kB2bbuZrCqBtvTi9MxkNbNpZiMraevG2oa0VlRWlKK9pv/3f9NW5+OHr7UiuUmLeY8/hn68ux93jB7BPrUd9k3knQqF1NefjD+O1JUuwK7ESsx9+Dm++thz33DEZEaHBcHKwwyULimy6x6+wpde3QunsAqumEmx8fw3OlzfiWs3sSrJzkJRUhn6DR2Ly+JHoHx6BKbMWYMrYaHiozDsRCq2rcXZxh5erPQoyz+JofBIa9UYo7fi7uph36MTeNxT3LngQixYtwkuvrMAXH78GXfIhvLX+e7S1/b7L211ORW0NStn46BXgCw8HfrVjGZQqN6jVjrCRt+9DKLQuxyNkAJ55ZRXWvbUEytITeOTeOVj4t9dxOq0AbcZLhykrhQ3ULq7ie5l5eHphwIg7EBMGnEo+BSNf4bgG+FWVrdmXFVcizfddQFe8u4BC62Ks5QqoPXwwasJMvLnmQ7z54mNoSt+De2ZOwcKl7yKzsMK85y9ZCU2orRbg7ujSPgLaKOHI6sjJLRMfF0wGNFbmIP/iuzhdkaerGt4yHUoKClDe1L6a2dZYiIKiGjpG64RC65JkkNvYisGNmXo31n2yHauXP4mKklzkFxab9wEMLSyAokLk5eUh/exx/PPphfhRY4t5986GggUL70iMC3PApjcWYc+xszjw9SbcN+9hFOodzJ/hynzDIhA1qA/ivvscH23ciqM/7cOLzz6Hb348Db1MfOWNMBRal8aCY9NDlas3bp21ANveX4HYmwaKjzgoVWg4dwizbrsVAwYMwJDRk/HDeQFvsyj/MiYMcms2pFmpseqTLehvnYs7J4zC029/ixnPvIm7RvWFraL9TQf5lZHt2NdQyM0HXOy3yazlsLJWgH8KhcoPcxc8gb9MisQn/3oWs+c/C633cMybcwf6+XnA2ooO1Dg617GbEtgx2H8fh3W+tPgF7J+f78efBvx+GXucr1by78FWfAmT3S9empwfi4mP8beLYrdZceJtEd+HHaPx/dj94u8T72WfhX/Ozl+vh6LQCJEATR0JkQCFRogEKDRCJEChESIBCo0QCVBohEiAQiNEAvQ6mgUSTEY0NdRAoylCbUMTYK2As6s7/H19oFa1n7FBuhYKzeIIaKgqwq4vN2Pb90dQXa+DTGEL79CBmHPPXMwce6N5vz9Kj7NHjsPGPwL9Q9zbTy4m1x1NHS2MYGhBZuJPWL12C7yHTMO/P9qMtStfxa0xETAZrsW1Aarwj7tm4q1PTsAkwfdYQ1MlziafQ05hBVo7rlXSA1kvY8wfEwtgaqlHyold+PJUOe5/+kXcOigYnj4BuGHQYIT3DoS2ugxJCWdR1WSEq5uLeGIvV1GQiVPnsqBQOkBlZw1NdjriT55CUnIK8ovKYO/iAauGAuw7+CO+/WInmh084Whdj/y6NvQN9BbPdWyqKUXC6XjEn0nA+ew8NLaY4OTiAlu5FYx6LfLPpyE1qxSCsQEJp9jnTj2P+mYj7JW2qC3LR7z5vka9AJVKBVuFHC2VqXj3vQ9x+FQa2kyA0tEJKnu7C+dD9hQUmoWRCUZUFOVh754jkCldEcIicFI5Qm5+YlbnJmL1WytwJFuLwUNvhItSzobBVvyw6R28/dlB9B4QBXtdPtav+wD7D8chJTUd6RkZ8B0wFKqGc1jz4TYkJGeiobUFlSV50LQ6YvrowWipL8a2Daux5btDSE5JRlLiaZxJSIWRBRnW2x+Geg2+3rQKr6z5Bo1NhTh04CD279uLo2fSUVdbgXPxP2PvgUPYt3sXTpzNhk9wKAJ8PWFjY8dmq43ISIzDT0dPICO/GK2sOHuVuj24HjJ3pdAsjMxaARtbezQXZeDwwQNIzi6CrqUVNkpHqJ1VcHS0QWF2Ek6kaBDSfxD6BbhBX5uLzz7eAiufKNw28RYk796ALccK8Miif+D/HpuPmwaGwsvHH16+oRhzSyQOfbAFYbOW4P1/PYuJIwbDTmGNxL2bsGjFDsx+6h944elHETssHEVnD2PbnjMYPnEy1KhH0om9+P5oOkIiR2DBAwswor8nThzaid1Hk+AfPhT3LXgAo/p74NCunai180Z0VATUjir0CR+EsaNuhreTAlnn4nH8VALSs/Oh05vg7ecHOxtr/tM33Rodo1kcK3gFheHRxUvxyNypMJWnYd3KN/D6W+/hSHwaTPaeiBoYDfvmUqSmpkDHDnsKUhKQWdmKiMFR8PdSs9FCBWuTHlkZ6Sgor4dv70gEuDnCxk4Jd3dX2LHR0c7eGR4ennBzdoTRaMCuHZ+j1SUU4d42yExLgaaiEX69AtGgScOZ7Crzn82I4LD+mHPfIxh+QxRiht+MoVG94Bc2CNNmz0XMoAiMvGUsIvr4oKiwHNX1Fy9j5+AWgIl3zsebK1bg/tuGIHHnZix+YQlSSrTX7EJBloxCs0AyKzm8gsMx/8m/YsWb/8T9M0ajMGEfNnyyHbmVeoRFRiHUywlpSSkspGqcOZ0Io6M/IsP6wNnWCkNGT8NtQ/ri1MEf8PZbb2P9Zvb7yutgvMziB/85sryCdFgbqrH/h+/x/fff44dd+5CUW4OIiAg4Ky6ON/ZKO7iYL2lna+fAgnVit9XixvHrlNhay9ls1gCT4dKfh9PVlSP5bCIy88vgHRLGRrxwdjwp7/ajGUehWTBrGyWC+w/BffPnY/LI/sjKPo/sknq4BvRD1KB+KNdk4EzcISSey0ZA7/7oExwgPmndQqKx8Jnn8fj8O9HbWY8t697GZ9/+DK3u4hWJL8GOkxTsaylc/RAbG2vexmHq7XfhiWcex7B+7uYd/4j2RZZjB77Du2/9C6ve34j4nDoMmzQHy199FQP9HC+9RF43RaFZGIO+BZWF+SivbRJ/Qpk/UfX6ZuiamtloooSjvS1kNs4YPDgazkINvt36GRLLDQiPGgA/d36tDyPKS0th5eiBMZNn4a8v/A39XXQ4fjwBzS385QEFbO1laNHzK+e0fwUrmRUGDhgEbW0DvMOGYNy4ceIWy6aBQwZFwp0dF/5RbXUF+GTjWrzz3kc4q9Hihlum44V/vITHF8xBeBC/1EFPGM8oNIujb6zBiR+24B9LluL1N1fi36vfxWv/egdxmTUYzZ74/f3bp229WRjhfmqc+ukn6Ox90b9vKBzk/ElrxNGdn2ElOxba9Mmn+HjzVuRUyxAR1R92tjwYNQYMCsC5YzvwybZt+GjHPljL5Zh4xwL0a8vBsmUv44NNn2Hr559h9dsr8N66bai5zEB4NYwt9ag3KnHTrTPxt8UvssDuRlSoLxTynvXUo1VHSyOYoGOxZefkIL+gAGUVlTCyEWzU5JmYOWU8gtwdxd0UShVqis7jePw5DI6didsnjYaaL/UzOjZVy8zMQl5hEUrYsdmA4ZNw951T2IjnxEYvBTy8XFFZlIcS/pZKKj+MvjEcap8gBHmrUV2Sh/yiUpSXlaNBp4enXygGRYfBVmhFTXUVDHY+GDliODsWZF/I2IpStp/c2RdDbxgEF6U1+/MbUFxQDEef3rhxUDjc1M7o1X8QRsfciCAfV8g7rvvfw9ApWBbIaGBP6ooyFlkV9CYZnF094OfjDXvbTleUYk/8Hetex5qtRzH36Rdx34wxsDE/hwVjGypKilBaVQPIHRAYHAi1o/LCa1b8DTIKsjNR2cBCCuiNIK/2hQyTycBC06CovAYmmTWcXNzg4+MDRzuFeFZKTWUZapoEBIYEw46/tQwLray0BFqDHH5+vlAq2B9AaENJgQYtVvbw9vaEvc3l34OmJ6HQuqimsnT8a/lLSG4JwOLFf8OwfvSumpaMjtG6KJ22GW4BAzFl8kT0DfpfVgWJFGhE66JatA2oZMdYdk4ucHNR0XdMC0ehESIB+kZIiAQoNEIkQKERIgEKjRAJUGiESIBCI0QCFBohEqDQCJEAhUaIBCg0QiRAoRFy3QH/Dwwjz4Tp5uimAAAAAElFTkSuQmCC;" parent="1" vertex="1">
                    <mxGeometry x="1070" y="239" width="218" height="372" as="geometry"/>
                </mxCell>
            </root>
        </mxGraphModel>
    </diagram>
</mxfile>